<?xml version="1.0" encoding="UTF-8" standalone="no"?>
<!--Generator: Xara Designer (www.xara.com), SVG filter version: 3.0.2.3-->

<svg
   xmlns:dc="http://purl.org/dc/elements/1.1/"
   xmlns:cc="http://creativecommons.org/ns#"
   xmlns:rdf="http://www.w3.org/1999/02/22-rdf-syntax-ns#"
   xmlns:svg="http://www.w3.org/2000/svg"
   xmlns="http://www.w3.org/2000/svg"
   xmlns:sodipodi="http://sodipodi.sourceforge.net/DTD/sodipodi-0.dtd"
   xmlns:inkscape="http://www.inkscape.org/namespaces/inkscape"
   version="1.1"
   overflow="visible"
   width="158"
   height="202"
   viewBox="0 0 118.50001 151.50001"
   id="svg4053"
   sodipodi:docname="logotipo-jclab.svg"
   style="overflow:visible;fill-rule:evenodd;stroke-width:0.50099999;stroke-linejoin:bevel"
   inkscape:version="0.92.4 (5da689c313, 2019-01-14)">
  <title
     id="title4141">Logotipo JCLAB</title>
  <metadata
     id="metadata4057">
    <rdf:RDF>
      <cc:Work
         rdf:about="">
        <dc:format>image/svg+xml</dc:format>
        <dc:type
           rdf:resource="http://purl.org/dc/dcmitype/StillImage" />
        <dc:title>Logotipo JCLAB</dc:title>
        <dc:publisher>
          <cc:Agent>
            <dc:title>Joao Carlos Pinto</dc:title>
          </cc:Agent>
        </dc:publisher>
        <dc:creator>
          <cc:Agent>
            <dc:title>Joao Carlos Pinto</dc:title>
          </cc:Agent>
        </dc:creator>
        <dc:contributor>
          <cc:Agent>
            <dc:title>Mariana Pinto</dc:title>
          </cc:Agent>
        </dc:contributor>
        <dc:description>Logotipo JCLAB</dc:description>
      </cc:Work>
    </rdf:RDF>
  </metadata>
  <sodipodi:namedview
     pagecolor="#ffffff"
     bordercolor="#666666"
     borderopacity="1"
     objecttolerance="10"
     gridtolerance="10"
     guidetolerance="10"
     inkscape:pageopacity="0"
     inkscape:pageshadow="2"
     inkscape:window-width="1920"
     inkscape:window-height="1027"
     id="namedview4055"
     showgrid="false"
     units="px"
     inkscape:zoom="3.0574029"
     inkscape:cx="29.09377"
     inkscape:cy="115.75159"
     inkscape:window-x="-8"
     inkscape:window-y="-8"
     inkscape:window-maximized="1"
     inkscape:current-layer="svg4053" />
  <defs
     id="defs3963" />
  <g
     id="Document"
     font-size="16"
     transform="matrix(1,0,0,-1,-91.06762,-76.073011)"
     style="font-size:16px;font-family:'Times New Roman';fill:none;stroke:#000000">
    <g
       id="Spread"
       transform="translate(0,-841.891)">
      <g
         id="Layer 1">
        <g
           id="Group">
          <path
             d="m 97.782,680.888 c -0.08,-0.458 -0.102,-0.85 -0.066,-1.188 0.036,-0.338 0.121,-0.614 0.257,-0.834 0.133,-0.219 0.315,-0.376 0.537,-0.469 0.221,-0.092 0.487,-0.114 0.791,-0.061 0.295,0.05 0.573,0.164 0.837,0.347 0.264,0.182 0.496,0.416 0.694,0.708 0.2,0.292 0.37,0.63 0.511,1.019 0.143,0.388 0.249,0.82 0.314,1.293 0.066,0.466 0.081,0.901 0.05,1.293 -0.029,0.393 -0.103,0.728 -0.217,0.997 -0.114,0.27 -0.276,0.466 -0.487,0.586 -0.209,0.119 -0.452,0.145 -0.735,0.077 -0.292,-0.071 -0.568,-0.224 -0.829,-0.452 -0.262,-0.23 -0.502,-0.518 -0.722,-0.858 -0.219,-0.342 -0.41,-0.725 -0.574,-1.148 -0.163,-0.423 -0.284,-0.861 -0.361,-1.31 z m -2.975,-0.734 c 0.168,0.801 0.453,1.604 0.841,2.4 0.387,0.795 0.849,1.548 1.379,2.235 0.532,0.685 1.114,1.288 1.746,1.78 0.633,0.49 1.296,0.832 1.995,1.015 0.691,0.179 1.302,0.171 1.839,-0.026 0.538,-0.195 0.973,-0.551 1.313,-1.043 0.34,-0.493 0.577,-1.117 0.71,-1.848 0.133,-0.731 0.145,-1.545 0.038,-2.426 -0.109,-0.88 -0.316,-1.662 -0.632,-2.367 -0.316,-0.704 -0.711,-1.301 -1.195,-1.81 -0.483,-0.51 -1.04,-0.914 -1.686,-1.229 -0.642,-0.315 -1.338,-0.517 -2.084,-0.622 -0.756,-0.109 -1.436,-0.1 -2.037,0.017 -0.597,0.118 -1.096,0.332 -1.486,0.653 -0.39,0.319 -0.656,0.739 -0.789,1.279 -0.133,0.542 -0.117,1.193 0.048,1.992 z"
             id="path3965"
             inkscape:connector-curvature="0"
             style="fill:#000000;fill-rule:nonzero;stroke:none;marker-start:none;marker-end:none" />
          <path
             d="m 108.723,686.136 c -0.682,-0.114 -1.022,-0.173 -1.702,-0.294 0.143,1.093 0.219,1.663 0.383,2.855 1.875,0.365 2.821,0.53 4.72,0.838 -0.682,-5.514 -0.95,-7.658 -1.198,-11.882 -1.226,-0.078 -1.839,-0.121 -3.07,-0.221 0.192,3.167 0.378,4.788 0.867,8.704 z"
             id="path3967"
             inkscape:connector-curvature="0"
             style="fill:#000000;fill-rule:nonzero;stroke:none;marker-start:none;marker-end:none" />
          <path
             d="m 117.532,683.878 c -0.054,-0.544 -0.055,-1.031 0,-1.459 0.053,-0.432 0.15,-0.794 0.297,-1.098 0.143,-0.302 0.328,-0.533 0.552,-0.69 0.223,-0.156 0.485,-0.227 0.786,-0.209 0.291,0.017 0.564,0.121 0.821,0.31 0.258,0.19 0.484,0.453 0.677,0.788 0.193,0.336 0.357,0.733 0.494,1.192 0.133,0.458 0.229,0.969 0.285,1.53 0.053,0.552 0.057,1.067 0.013,1.535 -0.043,0.467 -0.131,0.868 -0.259,1.196 -0.129,0.33 -0.305,0.578 -0.528,0.746 -0.224,0.167 -0.48,0.234 -0.771,0.2 -0.302,-0.036 -0.584,-0.166 -0.843,-0.389 -0.262,-0.221 -0.497,-0.514 -0.704,-0.875 -0.209,-0.361 -0.385,-0.78 -0.528,-1.257 -0.144,-0.478 -0.24,-0.983 -0.292,-1.52 z m -3.03,-0.313 c 0.095,0.96 0.314,1.873 0.651,2.738 0.335,0.863 0.763,1.642 1.278,2.324 0.512,0.68 1.096,1.246 1.745,1.683 0.651,0.436 1.343,0.704 2.082,0.801 0.726,0.095 1.375,10e-4 1.947,-0.282 0.573,-0.283 1.039,-0.723 1.403,-1.312 0.366,-0.59 0.622,-1.317 0.772,-2.17 0.152,-0.852 0.174,-1.805 0.074,-2.841 -0.102,-1.037 -0.307,-1.968 -0.621,-2.803 -0.313,-0.834 -0.708,-1.54 -1.186,-2.127 -0.477,-0.585 -1.026,-1.036 -1.656,-1.357 -0.626,-0.319 -1.3,-0.485 -2.021,-0.508 -0.732,-0.024 -1.39,0.099 -1.977,0.361 -0.585,0.263 -1.082,0.641 -1.484,1.141 -0.404,0.499 -0.699,1.103 -0.879,1.834 -0.179,0.73 -0.224,1.558 -0.128,2.518 z"
             id="path3969"
             inkscape:connector-curvature="0"
             style="fill:#000000;fill-rule:nonzero;stroke:none;marker-start:none;marker-end:none" />
          <path
             d="m 128.457,688.62 c -0.675,-0.075 -1.013,-0.111 -1.691,-0.183 0.126,1.217 0.193,1.838 0.331,3.11 1.883,0.227 2.821,0.337 4.67,0.567 -0.589,-5.845 -0.85,-8.478 -1.235,-13.712 -1.201,-0.045 -1.804,-0.064 -3.007,-0.102 0.294,3.967 0.487,5.97 0.932,10.32 z"
             id="path3971"
             inkscape:connector-curvature="0"
             style="fill:#000000;fill-rule:nonzero;stroke:none;marker-start:none;marker-end:none" />
          <path
             d="m 137.044,685.675 c -0.047,-0.625 -0.045,-1.186 0.008,-1.687 0.056,-0.502 0.151,-0.93 0.292,-1.288 0.142,-0.354 0.321,-0.625 0.54,-0.809 0.218,-0.182 0.475,-0.263 0.769,-0.237 0.284,0.026 0.549,0.152 0.799,0.383 0.248,0.228 0.466,0.544 0.647,0.938 0.182,0.397 0.332,0.861 0.451,1.393 0.119,0.532 0.198,1.119 0.235,1.756 0.036,0.628 0.024,1.203 -0.033,1.724 -0.055,0.521 -0.149,0.96 -0.28,1.317 -0.131,0.359 -0.304,0.63 -0.518,0.81 -0.214,0.179 -0.457,0.248 -0.73,0.21 -0.281,-0.041 -0.544,-0.183 -0.784,-0.424 -0.243,-0.242 -0.459,-0.563 -0.649,-0.962 -0.193,-0.399 -0.354,-0.865 -0.483,-1.4 -0.131,-0.535 -0.219,-1.11 -0.264,-1.724 z m -2.926,-0.306 c 0.093,1.108 0.3,2.139 0.618,3.092 0.316,0.954 0.716,1.793 1.194,2.518 0.479,0.724 1.021,1.316 1.621,1.77 0.601,0.454 1.24,0.732 1.92,0.837 0.67,0.102 1.267,0.014 1.8,-0.271 0.536,-0.285 0.979,-0.735 1.34,-1.346 0.362,-0.617 0.633,-1.383 0.813,-2.307 0.183,-0.923 0.256,-1.969 0.209,-3.138 -0.045,-1.169 -0.199,-2.241 -0.471,-3.219 -0.27,-0.976 -0.634,-1.823 -1.086,-2.535 -0.456,-0.711 -0.991,-1.274 -1.613,-1.681 -0.618,-0.407 -1.287,-0.632 -2.004,-0.678 -0.725,-0.047 -1.376,0.089 -1.95,0.402 -0.575,0.314 -1.057,0.773 -1.444,1.381 -0.388,0.606 -0.668,1.343 -0.833,2.215 -0.171,0.873 -0.209,1.854 -0.114,2.96 z"
             id="path3973"
             inkscape:connector-curvature="0"
             style="fill:#000000;fill-rule:nonzero;stroke:none;marker-start:none;marker-end:none" />
          <path
             d="m 147.077,691.247 c -0.604,-0.124 -0.908,-0.183 -1.521,-0.299 0.033,1.311 0.05,1.968 0.085,3.285 1.652,0.332 2.435,0.527 4.172,0.919 0.181,-6.011 0.247,-9.051 0.338,-15.129 -1.308,-0.166 -1.98,-0.25 -3.183,-0.404 0.04,4.644 0.062,6.965 0.109,11.628 z"
             id="path3975"
             inkscape:connector-curvature="0"
             style="fill:#000000;fill-rule:nonzero;stroke:none;marker-start:none;marker-end:none" />
          <path
             d="m 156.207,688.734 c 0.053,-0.686 0.145,-1.307 0.283,-1.858 0.138,-0.552 0.307,-1.022 0.516,-1.414 0.207,-0.386 0.446,-0.68 0.711,-0.871 0.266,-0.192 0.56,-0.268 0.877,-0.221 0.308,0.046 0.58,0.202 0.82,0.473 0.24,0.269 0.428,0.63 0.568,1.079 0.138,0.448 0.228,0.971 0.271,1.564 0.043,0.59 0.028,1.237 -0.045,1.933 -0.072,0.685 -0.191,1.308 -0.353,1.866 -0.159,0.559 -0.351,1.024 -0.565,1.4 -0.216,0.375 -0.459,0.653 -0.727,0.83 -0.269,0.18 -0.545,0.242 -0.832,0.187 -0.297,-0.057 -0.549,-0.223 -0.759,-0.49 -0.211,-0.27 -0.382,-0.622 -0.513,-1.059 -0.131,-0.435 -0.218,-0.942 -0.264,-1.529 -0.045,-0.585 -0.04,-1.215 0.012,-1.89 z m -3.071,-0.544 c -0.064,1.222 -0.003,2.351 0.173,3.392 0.172,1.039 0.443,1.952 0.806,2.74 0.364,0.785 0.808,1.429 1.338,1.931 0.533,0.503 1.139,0.824 1.836,0.967 0.687,0.141 1.35,0.079 1.998,-0.188 0.647,-0.27 1.243,-0.715 1.781,-1.342 0.542,-0.626 1.017,-1.422 1.41,-2.397 0.396,-0.976 0.682,-2.098 0.841,-3.368 0.157,-1.271 0.159,-2.453 0.009,-3.541 -0.152,-1.087 -0.434,-2.042 -0.837,-2.855 -0.404,-0.813 -0.922,-1.467 -1.551,-1.958 -0.628,-0.49 -1.334,-0.783 -2.113,-0.88 -0.79,-0.1 -1.52,0.01 -2.19,0.325 -0.67,0.312 -1.257,0.799 -1.758,1.46 -0.5,0.656 -0.902,1.467 -1.201,2.434 -0.302,0.967 -0.478,2.056 -0.542,3.28 z"
             id="path3977"
             inkscape:connector-curvature="0"
             style="fill:#000000;fill-rule:nonzero;stroke:none;marker-start:none;marker-end:none" />
          <path
             d="m 167.107,690.491 c 0.103,-0.711 0.238,-1.357 0.414,-1.933 0.174,-0.58 0.374,-1.076 0.609,-1.488 0.232,-0.413 0.487,-0.726 0.768,-0.936 0.278,-0.209 0.579,-0.297 0.898,-0.259 0.309,0.036 0.578,0.19 0.808,0.461 0.231,0.271 0.407,0.639 0.526,1.098 0.118,0.461 0.185,0.996 0.196,1.603 0.012,0.606 -0.04,1.274 -0.158,1.991 -0.117,0.702 -0.281,1.343 -0.486,1.918 -0.204,0.575 -0.437,1.054 -0.687,1.446 -0.252,0.39 -0.527,0.68 -0.822,0.876 -0.294,0.193 -0.587,0.269 -0.881,0.227 -0.303,-0.043 -0.552,-0.196 -0.747,-0.459 -0.197,-0.262 -0.344,-0.611 -0.444,-1.049 -0.1,-0.437 -0.146,-0.952 -0.148,-1.551 0,-0.597 0.052,-1.246 0.154,-1.945 z m -3.128,-0.464 c -0.164,1.272 -0.202,2.437 -0.118,3.495 0.085,1.06 0.276,1.977 0.578,2.757 0.303,0.777 0.705,1.404 1.212,1.878 0.511,0.477 1.119,0.763 1.839,0.867 0.709,0.102 1.414,0.003 2.116,-0.297 0.704,-0.302 1.367,-0.777 1.982,-1.429 0.616,-0.655 1.17,-1.475 1.647,-2.474 0.478,-1 0.846,-2.146 1.079,-3.446 0.234,-1.298 0.293,-2.508 0.186,-3.62 -0.105,-1.108 -0.355,-2.083 -0.735,-2.908 -0.38,-0.826 -0.881,-1.485 -1.499,-1.977 -0.616,-0.489 -1.317,-0.772 -2.095,-0.853 -0.791,-0.083 -1.526,0.054 -2.212,0.399 -0.683,0.347 -1.294,0.873 -1.833,1.579 -0.539,0.703 -0.989,1.568 -1.357,2.588 -0.367,1.022 -0.626,2.168 -0.79,3.441 z"
             id="path3979"
             inkscape:connector-curvature="0"
             style="fill:#000000;fill-rule:nonzero;stroke:none;marker-start:none;marker-end:none" />
          <path
             d="m 177.105,696.17 c -0.696,-0.051 -1.044,-0.081 -1.74,-0.143 -0.349,1.372 -0.539,2.046 -0.949,3.352 1.883,0.163 2.827,0.223 4.709,0.292 2.132,-5.835 2.8,-9.31 3.523,-16.209 -1.31,-0.059 -1.966,-0.095 -3.275,-0.178 -0.535,5.355 -0.972,8.032 -2.268,12.886 z"
             id="path3981"
             inkscape:connector-curvature="0"
             style="fill:#000000;fill-rule:nonzero;stroke:none;marker-start:none;marker-end:none" />
          <path
             d="m 187.704,692.055 c 0.18,-0.716 0.377,-1.378 0.606,-1.98 0.228,-0.604 0.47,-1.129 0.737,-1.58 0.268,-0.445 0.548,-0.795 0.846,-1.046 0.295,-0.25 0.604,-0.379 0.925,-0.386 0.311,-0.007 0.574,0.108 0.788,0.347 0.214,0.238 0.366,0.578 0.45,1.013 0.085,0.438 0.109,0.955 0.066,1.548 -0.043,0.591 -0.159,1.247 -0.356,1.956 -0.191,0.698 -0.431,1.335 -0.713,1.913 -0.276,0.58 -0.575,1.07 -0.884,1.479 -0.307,0.408 -0.63,0.729 -0.956,0.96 -0.326,0.233 -0.635,0.356 -0.929,0.371 -0.302,0.014 -0.533,-0.084 -0.694,-0.293 -0.162,-0.213 -0.262,-0.516 -0.305,-0.915 -0.043,-0.399 -0.026,-0.884 0.045,-1.462 0.07,-0.579 0.198,-1.221 0.374,-1.925 z m -3.148,-0.019 c -0.301,1.298 -0.482,2.455 -0.537,3.47 -0.056,1.013 0.005,1.854 0.193,2.532 0.188,0.677 0.495,1.179 0.934,1.514 0.44,0.337 1.012,0.473 1.726,0.423 0.706,-0.05 1.438,-0.278 2.205,-0.684 0.768,-0.405 1.52,-0.954 2.249,-1.655 0.73,-0.701 1.419,-1.542 2.042,-2.545 0.625,-1.001 1.145,-2.128 1.526,-3.393 0.382,-1.266 0.553,-2.438 0.537,-3.498 -0.017,-1.061 -0.205,-1.98 -0.539,-2.741 -0.336,-0.763 -0.811,-1.353 -1.415,-1.764 -0.601,-0.411 -1.3,-0.608 -2.084,-0.594 -0.796,0.015 -1.543,0.24 -2.249,0.678 -0.704,0.437 -1.345,1.052 -1.928,1.842 -0.584,0.789 -1.095,1.735 -1.544,2.826 -0.452,1.091 -0.816,2.291 -1.116,3.589 z"
             id="path3983"
             inkscape:connector-curvature="0"
             style="fill:#000000;fill-rule:nonzero;stroke:none;marker-start:none;marker-end:none" />
          <path
             d="m 196.993,695.435 c -0.675,0.119 -1.013,0.174 -1.691,0.274 -0.574,1.276 -0.886,1.889 -1.563,3.051 1.816,-0.327 2.717,-0.525 4.495,-1.012 3.451,-5.008 4.535,-8.412 5.721,-15.134 -1.324,0.186 -1.985,0.266 -3.307,0.406 -0.838,5.301 -1.542,7.953 -3.655,12.415 z"
             id="path3985"
             inkscape:connector-curvature="0"
             style="fill:#000000;fill-rule:nonzero;stroke:none;marker-start:none;marker-end:none" />
          <path
             d="m 97.01,668.21 c 0.04,-0.393 0.131,-0.758 0.276,-1.093 0.145,-0.334 0.328,-0.63 0.553,-0.885 0.221,-0.252 0.473,-0.454 0.754,-0.601 0.278,-0.145 0.578,-0.223 0.9,-0.226 0.31,-0.005 0.58,0.064 0.814,0.205 0.235,0.142 0.418,0.344 0.554,0.605 0.137,0.26 0.228,0.569 0.282,0.92 0.052,0.35 0.057,0.737 0.012,1.153 -0.042,0.409 -0.124,0.782 -0.249,1.117 -0.124,0.335 -0.279,0.614 -0.466,0.844 -0.186,0.228 -0.411,0.4 -0.671,0.516 -0.263,0.117 -0.544,0.166 -0.851,0.148 -0.318,-0.017 -0.601,-0.098 -0.846,-0.239 -0.251,-0.14 -0.459,-0.328 -0.63,-0.563 -0.173,-0.237 -0.297,-0.513 -0.375,-0.837 -0.078,-0.323 -0.097,-0.677 -0.057,-1.064 z m -3.309,-0.169 c -0.061,0.678 0.043,1.284 0.292,1.837 0.248,0.556 0.618,1.037 1.092,1.46 0.475,0.42 1.04,0.77 1.685,1.045 0.648,0.276 1.355,0.452 2.123,0.519 0.76,0.067 1.454,0.014 2.086,-0.167 0.635,-0.183 1.177,-0.475 1.638,-0.877 0.461,-0.402 0.829,-0.907 1.112,-1.518 0.286,-0.609 0.462,-1.303 0.538,-2.087 0.078,-0.782 0.042,-1.507 -0.115,-2.168 -0.156,-0.659 -0.411,-1.234 -0.774,-1.707 -0.362,-0.475 -0.828,-0.841 -1.413,-1.086 -0.584,-0.245 -1.259,-0.352 -2.032,-0.323 -0.786,0.03 -1.538,0.188 -2.257,0.468 -0.714,0.278 -1.367,0.654 -1.94,1.115 -0.573,0.461 -1.048,0.993 -1.403,1.583 -0.359,0.592 -0.572,1.226 -0.632,1.906 z"
             id="path3987"
             inkscape:connector-curvature="0"
             style="fill:#000000;fill-rule:nonzero;stroke:none;marker-start:none;marker-end:none" />
          <path
             d="m 107.773,670.929 c -0.685,0.007 -1.03,0.009 -1.722,0.009 -0.038,0.852 -0.047,1.274 -0.052,2.116 1.93,0.059 2.884,0.073 4.783,0.078 -0.008,-4.098 0.119,-6.035 0.777,-10.846 -1.16,0.148 -1.747,0.219 -2.933,0.348 -0.573,3.663 -0.73,5.202 -0.853,8.295 z"
             id="path3989"
             inkscape:connector-curvature="0"
             style="fill:#000000;fill-rule:nonzero;stroke:none;marker-start:none;marker-end:none" />
          <path
             d="m 116.883,667.47 c 0.019,-0.506 0.083,-0.977 0.195,-1.411 0.11,-0.435 0.255,-0.82 0.437,-1.158 0.179,-0.335 0.386,-0.608 0.623,-0.813 0.233,-0.207 0.492,-0.33 0.773,-0.368 0.273,-0.036 0.516,0.019 0.736,0.168 0.219,0.148 0.4,0.378 0.542,0.681 0.143,0.308 0.252,0.675 0.326,1.107 0.074,0.428 0.109,0.91 0.1,1.438 -0.009,0.52 -0.057,1.001 -0.15,1.441 -0.092,0.442 -0.216,0.819 -0.377,1.135 -0.158,0.317 -0.355,0.564 -0.59,0.747 -0.236,0.181 -0.494,0.28 -0.777,0.295 -0.293,0.014 -0.556,-0.055 -0.787,-0.207 -0.233,-0.152 -0.43,-0.371 -0.592,-0.656 -0.164,-0.285 -0.285,-0.63 -0.366,-1.039 -0.083,-0.409 -0.112,-0.862 -0.093,-1.36 z m -2.907,0.252 c -0.049,0.883 0.041,1.66 0.262,2.356 0.219,0.694 0.551,1.279 0.984,1.768 0.433,0.486 0.953,0.866 1.554,1.132 0.604,0.269 1.267,0.397 1.99,0.383 0.713,-0.015 1.364,-0.172 1.953,-0.483 0.59,-0.311 1.087,-0.749 1.496,-1.314 0.411,-0.566 0.724,-1.25 0.944,-2.052 0.225,-0.803 0.332,-1.697 0.334,-2.679 0.001,-0.984 -0.104,-1.875 -0.315,-2.666 -0.208,-0.792 -0.504,-1.46 -0.88,-1.994 -0.38,-0.535 -0.834,-0.925 -1.377,-1.16 -0.541,-0.236 -1.14,-0.3 -1.806,-0.191 -0.675,0.11 -1.305,0.371 -1.897,0.775 -0.589,0.404 -1.121,0.92 -1.587,1.538 -0.464,0.618 -0.849,1.319 -1.139,2.097 -0.292,0.779 -0.468,1.606 -0.516,2.49 z"
             id="path3991"
             inkscape:connector-curvature="0"
             style="fill:#000000;fill-rule:nonzero;stroke:none;marker-start:none;marker-end:none" />
          <path
             d="m 127.071,670.03 c -0.664,0.036 -0.996,0.055 -1.659,0.095 0.031,1.089 0.052,1.631 0.1,2.715 1.861,-0.052 2.792,-0.078 4.661,-0.112 -0.271,-5.176 -0.343,-7.71 -0.3,-13.223 -1.15,0.16 -1.721,0.243 -2.854,0.414 -0.096,4.221 -0.081,6.182 0.052,10.111 z"
             id="path3993"
             inkscape:connector-curvature="0"
             style="fill:#000000;fill-rule:nonzero;stroke:none;marker-start:none;marker-end:none" />
          <path
             d="m 135.618,669.674 c -0.68,0.016 -1.019,0.026 -1.695,0.047 0.051,1.186 0.081,1.778 0.143,2.96 1.883,-0.008 2.828,-0.003 4.735,0.036 -0.254,-5.601 -0.349,-8.375 -0.444,-14.148 -1.234,0.097 -1.841,0.152 -3.041,0.276 0.052,4.433 0.117,6.563 0.302,10.829 z"
             id="path3995"
             inkscape:connector-curvature="0"
             style="fill:#000000;fill-rule:nonzero;stroke:none;marker-start:none;marker-end:none" />
          <path
             d="m 144.867,665.648 c -0.01,-0.649 0.03,-1.241 0.123,-1.774 0.093,-0.535 0.228,-0.998 0.411,-1.392 0.179,-0.391 0.4,-0.695 0.657,-0.911 0.258,-0.214 0.554,-0.323 0.888,-0.319 0.321,0.003 0.618,0.117 0.889,0.34 0.271,0.222 0.512,0.535 0.7,0.935 0.189,0.403 0.337,0.877 0.442,1.426 0.106,0.547 0.161,1.157 0.159,1.82 -0.002,0.654 -0.058,1.256 -0.166,1.804 -0.105,0.547 -0.253,1.013 -0.441,1.396 -0.189,0.383 -0.429,0.677 -0.687,0.879 -0.259,0.2 -0.541,0.29 -0.848,0.271 -0.318,-0.019 -0.603,-0.143 -0.855,-0.371 -0.255,-0.228 -0.473,-0.539 -0.657,-0.932 -0.187,-0.392 -0.332,-0.858 -0.44,-1.4 -0.107,-0.544 -0.166,-1.133 -0.175,-1.772 z m -3.166,-0.007 c 0.03,1.15 0.185,2.189 0.463,3.13 0.276,0.941 0.652,1.749 1.122,2.436 0.469,0.684 1.02,1.231 1.649,1.64 0.631,0.411 1.322,0.647 2.081,0.713 0.75,0.062 1.48,-0.062 2.162,-0.39 0.685,-0.328 1.27,-0.825 1.762,-1.492 0.496,-0.668 0.882,-1.493 1.164,-2.472 0.279,-0.98 0.428,-2.085 0.435,-3.304 0.007,-1.219 -0.128,-2.327 -0.401,-3.323 -0.271,-0.994 -0.654,-1.849 -1.146,-2.556 -0.492,-0.708 -1.082,-1.255 -1.782,-1.64 -0.697,-0.385 -1.467,-0.579 -2.28,-0.577 -0.825,0.002 -1.56,0.202 -2.218,0.59 -0.656,0.387 -1.21,0.933 -1.668,1.63 -0.457,0.694 -0.802,1.519 -1.036,2.47 -0.236,0.951 -0.338,1.998 -0.307,3.145 z"
             id="path3997"
             inkscape:connector-curvature="0"
             style="fill:#000000;fill-rule:nonzero;stroke:none;marker-start:none;marker-end:none" />
          <path
             d="m 156.599,666.089 c 0.003,-0.687 0.055,-1.311 0.159,-1.868 0.103,-0.561 0.245,-1.041 0.431,-1.443 0.187,-0.403 0.408,-0.713 0.667,-0.929 0.255,-0.212 0.547,-0.316 0.875,-0.304 0.314,0.012 0.604,0.136 0.872,0.371 0.265,0.238 0.491,0.568 0.674,0.988 0.183,0.423 0.328,0.921 0.434,1.496 0.103,0.573 0.159,1.214 0.159,1.911 -0.002,0.687 -0.057,1.324 -0.164,1.901 -0.106,0.576 -0.254,1.068 -0.441,1.472 -0.186,0.406 -0.416,0.715 -0.687,0.927 -0.271,0.214 -0.564,0.308 -0.883,0.285 -0.33,-0.024 -0.624,-0.164 -0.879,-0.411 -0.257,-0.248 -0.478,-0.585 -0.66,-1.008 -0.184,-0.423 -0.321,-0.923 -0.419,-1.503 -0.098,-0.582 -0.142,-1.21 -0.138,-1.885 z m -3.347,-0.156 c -0.007,1.222 0.12,2.343 0.378,3.363 0.259,1.02 0.625,1.907 1.098,2.662 0.471,0.752 1.035,1.358 1.688,1.814 0.656,0.458 1.383,0.723 2.185,0.798 0.793,0.072 1.528,-0.059 2.206,-0.406 0.681,-0.347 1.266,-0.877 1.758,-1.581 0.493,-0.708 0.88,-1.581 1.156,-2.616 0.277,-1.035 0.415,-2.197 0.409,-3.473 -0.006,-1.275 -0.155,-2.429 -0.436,-3.464 -0.28,-1.036 -0.667,-1.92 -1.15,-2.655 -0.483,-0.736 -1.055,-1.309 -1.718,-1.718 -0.661,-0.409 -1.377,-0.627 -2.156,-0.652 -0.79,-0.025 -1.51,0.145 -2.166,0.51 -0.654,0.365 -1.224,0.895 -1.704,1.59 -0.482,0.694 -0.86,1.533 -1.131,2.519 -0.271,0.986 -0.41,2.087 -0.417,3.309 z"
             id="path3999"
             inkscape:connector-curvature="0"
             style="fill:#000000;fill-rule:nonzero;stroke:none;marker-start:none;marker-end:none" />
          <path
             d="m 168.053,671.279 c -0.738,-0.051 -1.107,-0.077 -1.844,-0.131 -0.023,1.445 -0.04,2.172 -0.092,3.625 2.06,0.178 3.087,0.266 5.138,0.425 0.226,-6.736 0.129,-10.14 -0.361,-16.244 -1.255,-0.062 -1.882,-0.093 -3.145,-0.152 0.3,4.77 0.369,7.328 0.304,12.477 z"
             id="path4001"
             inkscape:connector-curvature="0"
             style="fill:#000000;fill-rule:nonzero;stroke:none;marker-start:none;marker-end:none" />
          <path
             d="m 177.783,667.221 c -0.031,-0.728 -0.019,-1.384 0.045,-1.97 0.062,-0.585 0.164,-1.085 0.313,-1.503 0.145,-0.415 0.331,-0.734 0.559,-0.953 0.226,-0.219 0.496,-0.325 0.81,-0.313 0.302,0.013 0.59,0.137 0.868,0.378 0.276,0.239 0.523,0.574 0.734,1.002 0.212,0.431 0.392,0.941 0.535,1.534 0.141,0.591 0.236,1.252 0.278,1.982 0.039,0.718 0.019,1.388 -0.059,2.001 -0.078,0.611 -0.204,1.137 -0.373,1.574 -0.167,0.437 -0.385,0.774 -0.644,1.012 -0.26,0.238 -0.545,0.35 -0.858,0.336 -0.322,-0.013 -0.612,-0.153 -0.868,-0.409 -0.257,-0.26 -0.48,-0.614 -0.668,-1.065 -0.19,-0.45 -0.34,-0.984 -0.456,-1.602 -0.115,-0.618 -0.184,-1.288 -0.216,-2.004 z m -3.198,-0.15 c 0.041,1.308 0.193,2.522 0.459,3.627 0.266,1.104 0.625,2.064 1.087,2.876 0.463,0.808 1.012,1.451 1.652,1.921 0.643,0.469 1.357,0.725 2.151,0.765 0.782,0.038 1.513,-0.145 2.182,-0.554 0.672,-0.411 1.248,-1.009 1.723,-1.785 0.475,-0.779 0.836,-1.723 1.069,-2.821 0.233,-1.1 0.314,-2.318 0.228,-3.634 -0.087,-1.317 -0.321,-2.489 -0.686,-3.53 -0.364,-1.043 -0.828,-1.92 -1.376,-2.646 -0.545,-0.727 -1.163,-1.29 -1.845,-1.694 -0.682,-0.406 -1.393,-0.625 -2.134,-0.659 -0.751,-0.037 -1.408,0.119 -1.985,0.473 -0.575,0.352 -1.053,0.873 -1.443,1.576 -0.388,0.697 -0.675,1.559 -0.865,2.586 -0.188,1.027 -0.26,2.19 -0.217,3.499 z"
             id="path4003"
             inkscape:connector-curvature="0"
             style="fill:#000000;fill-rule:nonzero;stroke:none;marker-start:none;marker-end:none" />
          <path
             d="m 189.275,672.206 c -0.742,-10e-4 -1.112,-0.005 -1.85,-0.013 0.025,1.507 0.024,2.27 -0.014,3.799 2.064,0.026 3.097,0.024 5.175,-0.015 0.174,-6.94 -0.143,-10.477 -1.348,-16.203 -1.29,-0.026 -1.928,-0.042 -3.202,-0.079 0.865,4.543 1.132,7.176 1.239,12.511 z"
             id="path4005"
             inkscape:connector-curvature="0"
             style="fill:#000000;fill-rule:nonzero;stroke:none;marker-start:none;marker-end:none" />
          <path
             d="m 199.047,667.347 c -0.067,-0.709 -0.089,-1.346 -0.058,-1.916 0.033,-0.572 0.107,-1.058 0.235,-1.466 0.126,-0.407 0.302,-0.721 0.528,-0.944 0.226,-0.221 0.506,-0.338 0.84,-0.349 0.325,-0.01 0.644,0.087 0.955,0.289 0.313,0.203 0.597,0.497 0.848,0.882 0.252,0.388 0.471,0.852 0.651,1.401 0.177,0.548 0.307,1.169 0.374,1.865 0.067,0.683 0.062,1.331 -0.007,1.931 -0.067,0.603 -0.19,1.129 -0.361,1.575 -0.169,0.445 -0.391,0.801 -0.661,1.065 -0.267,0.264 -0.564,0.409 -0.889,0.433 -0.336,0.024 -0.638,-0.079 -0.908,-0.305 -0.273,-0.226 -0.509,-0.553 -0.716,-0.977 -0.209,-0.427 -0.38,-0.938 -0.522,-1.537 -0.143,-0.597 -0.243,-1.25 -0.309,-1.947 z m -3.329,0.112 c 0.117,1.293 0.322,2.496 0.633,3.58 0.309,1.085 0.697,2.015 1.183,2.78 0.485,0.759 1.049,1.339 1.707,1.729 0.658,0.391 1.389,0.548 2.206,0.479 0.806,-0.068 1.561,-0.353 2.261,-0.848 0.701,-0.497 1.309,-1.162 1.813,-1.98 0.504,-0.822 0.889,-1.783 1.134,-2.867 0.245,-1.084 0.321,-2.255 0.204,-3.487 -0.119,-1.233 -0.409,-2.301 -0.85,-3.228 -0.436,-0.927 -0.992,-1.685 -1.634,-2.302 -0.644,-0.614 -1.361,-1.075 -2.139,-1.396 -0.779,-0.319 -1.571,-0.477 -2.375,-0.471 -0.815,0.005 -1.506,0.172 -2.086,0.523 -0.576,0.348 -1.03,0.851 -1.376,1.529 -0.345,0.675 -0.569,1.509 -0.687,2.515 -0.117,1.005 -0.11,2.151 0.006,3.444 z"
             id="path4007"
             inkscape:connector-curvature="0"
             style="fill:#000000;fill-rule:nonzero;stroke:none;marker-start:none;marker-end:none" />
          <path
             d="m 105.99,650.851 c 0.168,-0.565 0.37,-1.082 0.604,-1.557 0.235,-0.478 0.485,-0.894 0.756,-1.26 0.27,-0.365 0.544,-0.662 0.824,-0.891 0.276,-0.228 0.549,-0.373 0.818,-0.432 0.261,-0.057 0.466,-0.017 0.623,0.121 0.157,0.137 0.256,0.361 0.301,0.668 0.043,0.309 0.039,0.691 -0.007,1.146 -0.05,0.453 -0.147,0.971 -0.295,1.552 -0.147,0.572 -0.318,1.114 -0.52,1.62 -0.199,0.504 -0.414,0.946 -0.647,1.325 -0.232,0.378 -0.484,0.686 -0.756,0.917 -0.273,0.235 -0.548,0.371 -0.827,0.411 -0.289,0.043 -0.527,-0.021 -0.71,-0.181 -0.186,-0.164 -0.321,-0.408 -0.402,-0.729 -0.081,-0.321 -0.104,-0.715 -0.066,-1.179 0.038,-0.464 0.14,-0.975 0.304,-1.531 z m -2.916,0.471 c -0.329,0.993 -0.483,1.892 -0.469,2.698 0.012,0.808 0.178,1.499 0.48,2.063 0.304,0.563 0.732,0.993 1.269,1.274 0.538,0.282 1.174,0.382 1.893,0.294 0.712,-0.085 1.387,-0.346 2.029,-0.784 0.644,-0.439 1.218,-1.017 1.735,-1.723 0.517,-0.709 0.966,-1.535 1.358,-2.467 0.395,-0.934 0.704,-1.938 0.95,-3.007 0.243,-1.065 0.374,-1.995 0.393,-2.8 0.021,-0.803 -0.06,-1.457 -0.245,-1.961 -0.185,-0.504 -0.475,-0.851 -0.884,-1.037 -0.409,-0.189 -0.918,-0.199 -1.547,-0.04 -0.637,0.16 -1.284,0.464 -1.95,0.903 -0.663,0.437 -1.317,0.982 -1.953,1.633 -0.633,0.651 -1.225,1.389 -1.757,2.225 -0.533,0.835 -0.975,1.738 -1.302,2.729 z"
             id="path4009"
             inkscape:connector-curvature="0"
             style="fill:#000000;fill-rule:nonzero;stroke:none;marker-start:none;marker-end:none" />
          <path
             d="m 114.832,652.869 c -0.608,0.114 -0.913,0.173 -1.528,0.285 -0.205,1.231 -0.3,1.857 -0.469,3.129 1.743,-0.293 2.598,-0.448 4.298,-0.763 0.637,-5.85 1.119,-8.503 2.445,-13.76 -0.983,0.239 -1.475,0.359 -2.467,0.606 -1.141,4.061 -1.594,6.115 -2.279,10.503 z"
             id="path4011"
             inkscape:connector-curvature="0"
             style="fill:#000000;fill-rule:nonzero;stroke:none;marker-start:none;marker-end:none" />
          <path
             d="m 123.346,647.405 c 0.085,-0.609 0.205,-1.167 0.361,-1.678 0.155,-0.512 0.333,-0.959 0.537,-1.348 0.2,-0.387 0.416,-0.699 0.649,-0.935 0.229,-0.235 0.469,-0.379 0.72,-0.427 0.243,-0.048 0.45,0.007 0.623,0.164 0.174,0.157 0.305,0.402 0.393,0.736 0.088,0.333 0.14,0.738 0.154,1.22 0.014,0.478 -0.014,1.024 -0.086,1.633 -0.071,0.599 -0.175,1.164 -0.311,1.692 -0.135,0.528 -0.294,0.991 -0.477,1.386 -0.181,0.395 -0.388,0.718 -0.623,0.965 -0.233,0.247 -0.478,0.394 -0.733,0.44 -0.265,0.05 -0.491,-0.012 -0.677,-0.179 -0.188,-0.168 -0.337,-0.423 -0.444,-0.765 -0.109,-0.342 -0.171,-0.761 -0.188,-1.259 -0.017,-0.497 0.019,-1.046 0.102,-1.645 z m -2.57,0.518 c -0.173,1.096 -0.211,2.085 -0.118,2.962 0.093,0.877 0.304,1.613 0.623,2.205 0.32,0.589 0.736,1.024 1.243,1.293 0.508,0.271 1.091,0.345 1.749,0.224 0.647,-0.117 1.258,-0.409 1.831,-0.877 0.574,-0.468 1.078,-1.072 1.518,-1.8 0.438,-0.732 0.804,-1.576 1.098,-2.531 0.295,-0.954 0.495,-1.983 0.609,-3.081 0.112,-1.098 0.119,-2.063 0.019,-2.909 -0.098,-0.846 -0.286,-1.545 -0.563,-2.099 -0.274,-0.558 -0.633,-0.956 -1.08,-1.198 -0.447,-0.242 -0.962,-0.302 -1.552,-0.181 -0.597,0.12 -1.171,0.402 -1.728,0.844 -0.558,0.44 -1.079,1.008 -1.562,1.707 -0.482,0.696 -0.912,1.504 -1.274,2.424 -0.365,0.92 -0.641,1.923 -0.813,3.017 z"
             id="path4013"
             inkscape:connector-curvature="0"
             style="fill:#000000;fill-rule:nonzero;stroke:none;marker-start:none;marker-end:none" />
          <path
             d="m 132.307,649.715 c -0.634,0.088 -0.946,0.133 -1.569,0.228 -0.088,1.251 -0.126,1.887 -0.194,3.178 1.758,-0.268 2.649,-0.392 4.482,-0.608 0.217,-5.834 0.431,-8.476 0.985,-13.787 -1.099,0.124 -1.639,0.191 -2.701,0.338 -0.515,4.146 -0.722,6.225 -1.003,10.651 z"
             id="path4015"
             inkscape:connector-curvature="0"
             style="fill:#000000;fill-rule:nonzero;stroke:none;marker-start:none;marker-end:none" />
          <path
             d="m 141.375,644.961 c 0.029,-0.603 0.104,-1.15 0.223,-1.645 0.122,-0.496 0.276,-0.925 0.469,-1.291 0.194,-0.363 0.414,-0.65 0.67,-0.857 0.252,-0.205 0.532,-0.314 0.842,-0.328 0.299,-0.012 0.57,0.076 0.817,0.263 0.245,0.184 0.449,0.454 0.611,0.802 0.159,0.353 0.281,0.77 0.363,1.257 0.081,0.485 0.113,1.031 0.093,1.631 -0.019,0.591 -0.088,1.142 -0.204,1.649 -0.114,0.506 -0.268,0.946 -0.456,1.315 -0.19,0.368 -0.417,0.66 -0.685,0.874 -0.266,0.214 -0.552,0.326 -0.861,0.34 -0.32,0.014 -0.601,-0.078 -0.843,-0.268 -0.243,-0.191 -0.447,-0.466 -0.611,-0.82 -0.166,-0.353 -0.285,-0.782 -0.359,-1.282 -0.074,-0.501 -0.097,-1.05 -0.069,-1.64 z m -3.004,0.217 c -0.064,1.09 0.002,2.081 0.202,2.97 0.199,0.889 0.511,1.645 0.936,2.268 0.425,0.621 0.946,1.096 1.567,1.422 0.622,0.325 1.323,0.468 2.108,0.434 0.777,-0.035 1.505,-0.24 2.184,-0.622 0.678,-0.38 1.267,-0.901 1.766,-1.557 0.5,-0.659 0.899,-1.441 1.184,-2.349 0.285,-0.908 0.438,-1.908 0.463,-2.992 0.022,-1.086 -0.087,-2.056 -0.325,-2.923 -0.238,-0.868 -0.594,-1.61 -1.044,-2.221 -0.454,-0.611 -0.995,-1.079 -1.623,-1.398 -0.628,-0.32 -1.309,-0.465 -2.044,-0.435 -0.747,0.031 -1.422,0.233 -2.044,0.602 -0.618,0.368 -1.16,0.877 -1.633,1.526 -0.471,0.647 -0.856,1.417 -1.151,2.31 -0.297,0.892 -0.48,1.878 -0.546,2.965 z"
             id="path4017"
             inkscape:connector-curvature="0"
             style="fill:#000000;fill-rule:nonzero;stroke:none;marker-start:none;marker-end:none" />
          <path
             d="m 152.708,644.754 c 0.003,-0.601 0.057,-1.145 0.159,-1.632 0.103,-0.488 0.243,-0.906 0.426,-1.258 0.18,-0.35 0.395,-0.621 0.642,-0.81 0.247,-0.184 0.525,-0.276 0.834,-0.265 0.297,0.008 0.57,0.115 0.818,0.317 0.249,0.202 0.459,0.485 0.629,0.843 0.169,0.36 0.303,0.787 0.402,1.275 0.096,0.489 0.152,1.034 0.155,1.632 0.007,0.587 -0.036,1.134 -0.126,1.634 -0.09,0.499 -0.219,0.931 -0.387,1.29 -0.167,0.359 -0.378,0.639 -0.63,0.835 -0.253,0.199 -0.533,0.296 -0.84,0.289 -0.32,-0.007 -0.608,-0.118 -0.86,-0.325 -0.255,-0.209 -0.476,-0.497 -0.659,-0.865 -0.185,-0.367 -0.323,-0.804 -0.422,-1.312 -0.1,-0.507 -0.145,-1.058 -0.141,-1.648 z m -3.232,-0.009 c -0.02,1.084 0.097,2.082 0.352,2.988 0.256,0.905 0.627,1.689 1.109,2.346 0.481,0.658 1.058,1.178 1.723,1.552 0.664,0.375 1.394,0.568 2.183,0.585 0.779,0.018 1.487,-0.148 2.12,-0.497 0.635,-0.348 1.165,-0.846 1.597,-1.483 0.433,-0.638 0.758,-1.405 0.98,-2.296 0.223,-0.889 0.321,-1.871 0.299,-2.943 -0.024,-1.07 -0.164,-2.037 -0.421,-2.91 -0.256,-0.874 -0.604,-1.626 -1.045,-2.26 -0.44,-0.637 -0.963,-1.139 -1.577,-1.504 -0.613,-0.364 -1.283,-0.561 -2.018,-0.588 -0.744,-0.03 -1.43,0.119 -2.06,0.442 -0.628,0.321 -1.181,0.79 -1.655,1.407 -0.475,0.612 -0.855,1.356 -1.133,2.23 -0.279,0.873 -0.433,1.845 -0.454,2.931 z"
             id="path4019"
             inkscape:connector-curvature="0"
             style="fill:#000000;fill-rule:nonzero;stroke:none;marker-start:none;marker-end:none" />
          <path
             d="m 163.632,649.012 c -0.684,-0.041 -1.029,-0.062 -1.72,-0.098 0.05,1.226 0.076,1.849 0.142,3.125 1.949,0.091 2.909,0.143 4.814,0.259 -0.421,-5.728 -0.459,-8.19 -0.711,-13.241 -1.153,-0.148 -1.733,-0.217 -2.902,-0.342 0.142,4 0.175,5.977 0.377,10.297 z"
             id="path4021"
             inkscape:connector-curvature="0"
             style="fill:#000000;fill-rule:nonzero;stroke:none;marker-start:none;marker-end:none" />
          <path
             d="m 172.206,649.667 c -0.665,-0.061 -0.998,-0.088 -1.666,-0.145 0.093,1.186 0.145,1.79 0.259,3.033 1.883,0.131 2.819,0.202 4.69,0.343 -0.652,-5.519 -0.754,-7.818 -1.213,-12.563 -1.126,-0.206 -1.689,-0.306 -2.821,-0.492 0.3,3.794 0.39,5.662 0.751,9.824 z"
             id="path4023"
             inkscape:connector-curvature="0"
             style="fill:#000000;fill-rule:nonzero;stroke:none;marker-start:none;marker-end:none" />
          <path
             d="m 180.649,650.483 c -0.665,-0.069 -0.996,-0.102 -1.659,-0.169 0.14,1.122 0.216,1.695 0.383,2.881 1.875,0.147 2.814,0.221 4.708,0.364 -0.908,-5.199 -1.089,-7.283 -1.78,-11.614 -1.127,-0.243 -1.688,-0.362 -2.812,-0.595 0.473,3.5 0.627,5.218 1.16,9.133 z"
             id="path4025"
             inkscape:connector-curvature="0"
             style="fill:#000000;fill-rule:nonzero;stroke:none;marker-start:none;marker-end:none" />
          <path
             d="m 189.042,648.327 c -0.093,-0.468 -0.133,-0.884 -0.116,-1.245 0.016,-0.362 0.078,-0.661 0.189,-0.902 0.108,-0.239 0.262,-0.409 0.461,-0.513 0.196,-0.1 0.44,-0.124 0.73,-0.069 0.281,0.053 0.556,0.174 0.825,0.357 0.269,0.187 0.518,0.423 0.74,0.706 0.225,0.287 0.427,0.611 0.605,0.983 0.177,0.369 0.321,0.773 0.428,1.217 0.105,0.435 0.157,0.838 0.155,1.208 -0.002,0.369 -0.053,0.689 -0.152,0.953 -0.1,0.262 -0.257,0.466 -0.466,0.602 -0.209,0.138 -0.461,0.195 -0.756,0.168 -0.306,-0.028 -0.597,-0.135 -0.872,-0.321 -0.278,-0.189 -0.531,-0.437 -0.764,-0.748 -0.234,-0.309 -0.436,-0.671 -0.61,-1.084 -0.174,-0.411 -0.305,-0.849 -0.397,-1.312 z m -2.936,-0.412 c 0.15,0.88 0.411,1.717 0.787,2.497 0.375,0.781 0.841,1.473 1.395,2.065 0.552,0.59 1.175,1.067 1.864,1.419 0.689,0.352 1.414,0.547 2.177,0.592 0.751,0.045 1.409,-0.069 1.968,-0.326 0.561,-0.259 0.996,-0.634 1.31,-1.108 0.316,-0.477 0.502,-1.043 0.566,-1.685 0.064,-0.644 -0.01,-1.345 -0.226,-2.106 -0.216,-0.76 -0.528,-1.442 -0.941,-2.08 -0.411,-0.637 -0.89,-1.204 -1.436,-1.715 -0.544,-0.511 -1.141,-0.949 -1.792,-1.315 -0.649,-0.368 -1.315,-0.637 -2.001,-0.796 -0.697,-0.162 -1.298,-0.186 -1.814,-0.062 -0.514,0.124 -0.934,0.378 -1.257,0.77 -0.324,0.392 -0.543,0.91 -0.652,1.559 -0.112,0.651 -0.098,1.41 0.052,2.291 z"
             id="path4027"
             inkscape:connector-curvature="0"
             style="fill:#000000;fill-rule:nonzero;stroke:none;marker-start:none;marker-end:none" />
          <path
             d="m 121.402,630.341 c 0.244,-0.569 0.504,-1.101 0.774,-1.597 0.271,-0.497 0.54,-0.94 0.806,-1.336 0.264,-0.392 0.514,-0.718 0.751,-0.973 0.233,-0.256 0.443,-0.425 0.631,-0.504 0.18,-0.076 0.304,-0.049 0.375,0.083 0.071,0.131 0.086,0.353 0.052,0.664 -0.038,0.313 -0.118,0.698 -0.244,1.155 -0.122,0.457 -0.291,0.977 -0.507,1.557 -0.211,0.57 -0.432,1.105 -0.668,1.605 -0.237,0.499 -0.471,0.936 -0.708,1.314 -0.236,0.376 -0.475,0.685 -0.718,0.929 -0.24,0.243 -0.468,0.397 -0.677,0.463 -0.219,0.069 -0.38,0.034 -0.481,-0.095 -0.102,-0.133 -0.151,-0.346 -0.142,-0.641 0.009,-0.293 0.076,-0.664 0.204,-1.113 0.126,-0.447 0.312,-0.951 0.552,-1.511 z m -2.059,0.808 c -0.484,1.008 -0.815,1.887 -0.998,2.645 -0.183,0.758 -0.219,1.372 -0.121,1.85 0.099,0.477 0.326,0.808 0.67,0.995 0.345,0.184 0.801,0.198 1.358,0.039 0.549,-0.155 1.105,-0.457 1.665,-0.911 0.561,-0.456 1.087,-1.027 1.589,-1.714 0.503,-0.691 0.969,-1.483 1.406,-2.386 0.44,-0.905 0.823,-1.883 1.17,-2.94 0.349,-1.056 0.596,-1.997 0.749,-2.819 0.156,-0.821 0.221,-1.5 0.2,-2.025 -0.02,-0.526 -0.132,-0.887 -0.345,-1.073 -0.212,-0.187 -0.518,-0.178 -0.935,0.025 -0.423,0.206 -0.889,0.574 -1.409,1.09 -0.521,0.516 -1.072,1.148 -1.65,1.888 -0.577,0.739 -1.166,1.563 -1.744,2.469 -0.58,0.906 -1.122,1.859 -1.605,2.867 z"
             id="path4029"
             inkscape:connector-curvature="0"
             style="fill:#000000;fill-rule:nonzero;stroke:none;marker-start:none;marker-end:none" />
          <path
             d="m 127.587,631.714 c -0.502,0.12 -0.752,0.183 -1.249,0.312 -0.322,1.162 -0.475,1.74 -0.767,2.897 1.442,-0.346 2.167,-0.508 3.648,-0.805 1.092,-5.287 1.759,-7.89 3.3,-13.554 -0.759,0.217 -1.134,0.333 -1.871,0.581 -1.384,4.378 -1.999,6.441 -3.061,10.569 z"
             id="path4031"
             inkscape:connector-curvature="0"
             style="fill:#000000;fill-rule:nonzero;stroke:none;marker-start:none;marker-end:none" />
          <path
             d="m 135.214,626.599 c 0.105,-0.599 0.238,-1.155 0.397,-1.666 0.159,-0.511 0.333,-0.96 0.525,-1.352 0.19,-0.388 0.39,-0.701 0.599,-0.934 0.209,-0.231 0.423,-0.366 0.645,-0.4 0.214,-0.035 0.397,0.038 0.549,0.216 0.154,0.177 0.268,0.443 0.342,0.795 0.073,0.354 0.114,0.775 0.119,1.269 0.005,0.49 -0.033,1.039 -0.112,1.642 -0.079,0.592 -0.19,1.141 -0.333,1.645 -0.142,0.504 -0.306,0.939 -0.49,1.305 -0.185,0.368 -0.392,0.659 -0.622,0.88 -0.229,0.22 -0.464,0.344 -0.704,0.375 -0.249,0.033 -0.454,-0.034 -0.618,-0.202 -0.164,-0.167 -0.287,-0.416 -0.366,-0.746 -0.081,-0.331 -0.114,-0.735 -0.104,-1.218 0.011,-0.484 0.069,-1.021 0.173,-1.609 z m -2.256,0.402 c -0.225,1.077 -0.332,2.03 -0.313,2.867 0.018,0.836 0.15,1.526 0.397,2.08 0.245,0.553 0.594,0.958 1.043,1.221 0.451,0.262 0.989,0.35 1.616,0.273 0.618,-0.078 1.218,-0.309 1.79,-0.701 0.573,-0.392 1.086,-0.91 1.536,-1.557 0.451,-0.649 0.829,-1.416 1.131,-2.308 0.304,-0.893 0.507,-1.882 0.62,-2.971 0.112,-1.09 0.112,-2.082 0.012,-2.973 -0.1,-0.891 -0.285,-1.654 -0.541,-2.273 -0.258,-0.622 -0.585,-1.088 -0.982,-1.388 -0.397,-0.299 -0.846,-0.406 -1.351,-0.318 -0.515,0.09 -1.003,0.359 -1.487,0.805 -0.481,0.441 -0.937,1.027 -1.376,1.745 -0.436,0.716 -0.84,1.545 -1.203,2.479 -0.364,0.935 -0.666,1.94 -0.892,3.019 z"
             id="path4033"
             inkscape:connector-curvature="0"
             style="fill:#000000;fill-rule:nonzero;stroke:none;marker-start:none;marker-end:none" />
          <path
             d="m 143.736,629.449 c -0.645,0.034 -0.963,0.053 -1.589,0.095 -0.099,1.18 -0.145,1.767 -0.239,2.936 1.791,-0.114 2.718,-0.154 4.663,-0.2 0.233,-5.326 0.361,-7.981 0.49,-13.912 -1.086,0.062 -1.61,0.098 -2.625,0.181 -0.265,4.589 -0.415,6.708 -0.7,10.9 z"
             id="path4035"
             inkscape:connector-curvature="0"
             style="fill:#000000;fill-rule:nonzero;stroke:none;marker-start:none;marker-end:none" />
          <path
             d="m 152.806,625.489 c -0.008,-0.613 0.024,-1.179 0.1,-1.689 0.078,-0.511 0.189,-0.954 0.335,-1.329 0.145,-0.373 0.321,-0.664 0.532,-0.865 0.207,-0.2 0.447,-0.293 0.72,-0.276 0.262,0.016 0.507,0.138 0.739,0.366 0.231,0.228 0.433,0.54 0.602,0.932 0.173,0.394 0.316,0.853 0.426,1.374 0.113,0.518 0.185,1.09 0.213,1.703 0.027,0.602 0.005,1.149 -0.064,1.645 -0.069,0.495 -0.18,0.911 -0.326,1.255 -0.149,0.341 -0.337,0.602 -0.568,0.783 -0.23,0.183 -0.485,0.266 -0.767,0.251 -0.291,-0.016 -0.556,-0.126 -0.787,-0.334 -0.236,-0.207 -0.437,-0.49 -0.606,-0.851 -0.169,-0.362 -0.298,-0.794 -0.395,-1.299 -0.095,-0.508 -0.145,-1.062 -0.154,-1.666 z m -2.914,-0.033 c -0.01,1.106 0.095,2.096 0.327,2.979 0.229,0.884 0.562,1.63 0.997,2.253 0.435,0.622 0.957,1.105 1.561,1.457 0.604,0.354 1.274,0.542 2.001,0.577 0.714,0.034 1.369,-0.092 1.954,-0.385 0.588,-0.292 1.079,-0.724 1.472,-1.295 0.396,-0.573 0.686,-1.277 0.869,-2.128 0.183,-0.851 0.238,-1.818 0.162,-2.921 -0.074,-1.1 -0.266,-2.132 -0.561,-3.094 -0.292,-0.959 -0.663,-1.812 -1.103,-2.542 -0.44,-0.731 -0.939,-1.321 -1.499,-1.753 -0.559,-0.431 -1.148,-0.669 -1.778,-0.707 -0.64,-0.038 -1.217,0.131 -1.74,0.497 -0.523,0.364 -0.979,0.894 -1.369,1.578 -0.39,0.68 -0.702,1.491 -0.93,2.423 -0.228,0.934 -0.352,1.954 -0.363,3.061 z"
             id="path4037"
             inkscape:connector-curvature="0"
             style="fill:#000000;fill-rule:nonzero;stroke:none;marker-start:none;marker-end:none" />
          <path
             d="m 162.513,626.483 c -0.059,-0.606 -0.076,-1.155 -0.052,-1.649 0.026,-0.493 0.088,-0.914 0.188,-1.263 0.1,-0.347 0.237,-0.61 0.409,-0.775 0.173,-0.166 0.385,-0.225 0.639,-0.169 0.245,0.053 0.484,0.21 0.722,0.466 0.236,0.255 0.456,0.59 0.651,0.996 0.196,0.407 0.372,0.871 0.524,1.393 0.152,0.519 0.268,1.079 0.346,1.676 0.076,0.585 0.1,1.112 0.072,1.581 -0.026,0.47 -0.098,0.858 -0.21,1.172 -0.113,0.313 -0.272,0.544 -0.475,0.694 -0.202,0.151 -0.435,0.201 -0.698,0.156 -0.272,-0.047 -0.526,-0.183 -0.756,-0.409 -0.233,-0.228 -0.44,-0.527 -0.621,-0.9 -0.185,-0.373 -0.337,-0.809 -0.465,-1.317 -0.127,-0.507 -0.215,-1.058 -0.274,-1.652 z m -2.7,-0.414 c 0.081,1.099 0.254,2.095 0.528,2.997 0.275,0.901 0.632,1.672 1.074,2.33 0.442,0.658 0.955,1.184 1.536,1.59 0.584,0.404 1.217,0.652 1.898,0.758 0.671,0.103 1.275,0.045 1.807,-0.176 0.533,-0.223 0.967,-0.586 1.302,-1.09 0.333,-0.505 0.559,-1.146 0.668,-1.935 0.108,-0.789 0.083,-1.704 -0.081,-2.765 -0.166,-1.06 -0.439,-2.073 -0.808,-3.037 -0.366,-0.963 -0.8,-1.84 -1.288,-2.613 -0.487,-0.775 -1.013,-1.426 -1.581,-1.937 -0.565,-0.509 -1.136,-0.841 -1.725,-0.981 -0.594,-0.139 -1.106,-0.067 -1.55,0.213 -0.442,0.279 -0.805,0.737 -1.095,1.36 -0.288,0.62 -0.495,1.386 -0.618,2.286 -0.124,0.899 -0.148,1.902 -0.067,3 z"
             id="path4039"
             inkscape:connector-curvature="0"
             style="fill:#000000;fill-rule:nonzero;stroke:none;marker-start:none;marker-end:none" />
          <path
             d="m 172.263,632.185 c -0.599,-0.155 -0.899,-0.231 -1.502,-0.376 0.152,1.108 0.218,1.655 0.34,2.737 1.709,0.372 2.557,0.572 4.252,0.998 -0.698,-4.731 -1.131,-7.1 -2.904,-12.929 -0.944,-0.384 -1.419,-0.568 -2.373,-0.915 1.231,4.604 1.605,6.601 2.187,10.485 z"
             id="path4041"
             inkscape:connector-curvature="0"
             style="fill:#000000;fill-rule:nonzero;stroke:none;marker-start:none;marker-end:none" />
          <path
             d="m 179.375,631.244 c -0.155,-0.537 -0.268,-1.02 -0.333,-1.443 -0.066,-0.425 -0.09,-0.78 -0.066,-1.062 0.024,-0.281 0.095,-0.478 0.22,-0.583 0.12,-0.104 0.302,-0.104 0.542,0.005 0.233,0.104 0.479,0.295 0.747,0.571 0.268,0.275 0.533,0.613 0.792,1.003 0.261,0.392 0.513,0.825 0.75,1.298 0.238,0.473 0.448,0.969 0.625,1.485 0.172,0.506 0.283,0.951 0.334,1.338 0.052,0.387 0.045,0.697 -0.013,0.937 -0.057,0.242 -0.175,0.406 -0.342,0.496 -0.168,0.089 -0.38,0.093 -0.634,0.008 -0.262,-0.086 -0.518,-0.245 -0.766,-0.478 -0.251,-0.233 -0.485,-0.525 -0.708,-0.877 -0.226,-0.352 -0.433,-0.754 -0.63,-1.215 -0.195,-0.463 -0.366,-0.955 -0.518,-1.483 z m -2.531,-0.922 c 0.251,0.995 0.555,1.906 0.936,2.747 0.378,0.84 0.81,1.578 1.305,2.22 0.494,0.642 1.038,1.175 1.633,1.612 0.597,0.437 1.224,0.742 1.882,0.93 0.649,0.189 1.218,0.23 1.7,0.128 0.48,-0.1 0.849,-0.328 1.096,-0.683 0.249,-0.358 0.37,-0.838 0.346,-1.457 -0.023,-0.62 -0.201,-1.364 -0.549,-2.263 -0.349,-0.9 -0.803,-1.789 -1.342,-2.671 -0.535,-0.882 -1.122,-1.718 -1.735,-2.491 -0.612,-0.775 -1.234,-1.466 -1.859,-2.052 -0.623,-0.586 -1.206,-1.026 -1.761,-1.304 -0.559,-0.283 -0.996,-0.354 -1.327,-0.221 -0.33,0.135 -0.552,0.452 -0.682,0.938 -0.129,0.485 -0.162,1.125 -0.104,1.904 0.056,0.778 0.209,1.669 0.461,2.663 z"
             id="path4043"
             inkscape:connector-curvature="0"
             style="fill:#000000;fill-rule:nonzero;stroke:none;marker-start:none;marker-end:none" />
          <path
             d="m 133.267,725.256 c 0,17.513 0.005,10.346 0.003,24.023 h -8.635 v 12.083 h 50.062 v -12.083 h -6.905 l -0.005,-24.023 c 4.07,-0.844 16.582,-3.993 26.536,-15.783 12.028,-14.252 11.592,-30.79 11.412,-34.404 0.162,-3.783 0.604,-22.977 -13.703,-39.01 -16.237,-18.197 -38.368,-17.638 -41.504,-17.505 -3.558,0.033 -25.107,0.589 -41.059,18.737 -13.512,15.372 -14.125,33.258 -14.151,37.778 -0.15,3.295 -0.728,22.733 13.835,37.409 9.097,9.17 19.548,11.887 24.114,12.778 z"
             stroke-miterlimit="79.8403193612775"
             id="path4045"
             inkscape:connector-curvature="0"
             style="fill:none;stroke:#000000;stroke-width:6.90500021;stroke-linejoin:miter;stroke-miterlimit:79.84031677;marker-start:none;marker-end:none" />
          <path
             d="m 96.116,690.235 c 20.13,-1.491 32.832,-0.428 51.679,5.193 1.747,-0.447 12.886,5.118 21.799,5.27 13.871,0.237 29.842,-2.102 30.234,-1.868"
             stroke-miterlimit="79.8403193612775"
             id="path4047"
             inkscape:connector-curvature="0"
             style="fill:none;stroke:#000000;stroke-width:3.45300007;stroke-linecap:round;stroke-linejoin:round;stroke-miterlimit:79.84031677" />
        </g>
      </g>
    </g>
  </g>
</svg>
